<?xml version="1.0" encoding="UTF-8"?>
<svg id="Capa_1" xmlns="http://www.w3.org/2000/svg" version="1.1" viewBox="0 0 183.01 202.91">
  <!-- Generator: Adobe Illustrator 29.8.4, SVG Export Plug-In . SVG Version: 2.1.1 Build 6)  -->
  <defs>
    <style>
      .st0 {
        fill: #fff;
      }

      .st0, .st1, .st2, .st3 {
        fill-rule: evenodd;
      }

      .st1 {
        fill: #ffec4b;
      }

      .st4 {
        fill: none;
        stroke: #fff;
        stroke-miterlimit: 22.93;
        stroke-width: .08px;
      }

      .st3 {
        fill: #e30613;
      }
    </style>
  </defs>
  <path class="st0" d="M102.22,178.39c-4.16,0-7.54,3.38-7.54,7.54s3.38,7.54,7.54,7.54,7.54-3.38,7.54-7.54-3.38-7.54-7.54-7.54Z"/>
  <path class="st4" d="M102.22,178.39c-4.16,0-7.54,3.38-7.54,7.54s3.38,7.54,7.54,7.54,7.54-3.38,7.54-7.54-3.38-7.54-7.54-7.54Z"/>
  <path class="st0" d="M79.95,178.39c-4.16,0-7.54,3.38-7.54,7.54s3.38,7.54,7.54,7.54,7.54-3.38,7.54-7.54-3.38-7.54-7.54-7.54Z"/>
  <path class="st4" d="M79.95,178.39c-4.16,0-7.54,3.38-7.54,7.54s3.38,7.54,7.54,7.54,7.54-3.38,7.54-7.54-3.38-7.54-7.54-7.54Z"/>
  <path class="st0" d="M59.31,178.39c-4.16,0-7.54,3.38-7.54,7.54s3.38,7.54,7.54,7.54,7.54-3.38,7.54-7.54-3.38-7.54-7.54-7.54Z"/>
  <path class="st4" d="M59.31,178.39c-4.16,0-7.54,3.38-7.54,7.54s3.38,7.54,7.54,7.54,7.54-3.38,7.54-7.54-3.38-7.54-7.54-7.54Z"/>
  <path class="st3" d="M37.08,24.61s6.21-12.41,16.14-10.92c0,0-3.48,2.36-3.48,5.4,0,0,7.45-2.67,17.38-1.43,9.93,1.24,13.91-2.98,13.91-2.98,0,0-2.73,31.04-43.96,9.93"/>
  <path class="st0" d="M173.13,88.64s-69.18-58.12-114.01,0c0,0-24.25,36.16,8.08,85.51,0,0,14.46-60.83,105.92-49.77,0,0-28.93-31.88-76.57-9.56,0,0,17.87-23.62,76.57-10.43,0,0-44.24-29.18-80.83-10.97,0,0,20.42-23.91,80.83-4.77"/>
  <path class="st0" d="M36.58,29.51s11.49,13.23,2.98,64.47c-8.51,51.24,21.27,80.16,21.27,80.16,0,0-42.97-74.85,14.89-105.27,0,0-5.95-31.28-39.14-39.36"/>
  <path class="st1" d="M32.57,29.79s-10.1-2.77-17.1,1.95c0,0,18.89,9.61,23.45,18.56,0,0-1.47-11.07-6.35-20.51"/>
  <path class="st3" d="M38.92,54.91s3.3,29.21-8.16,29.21-3.64-23.66,8.16-29.21"/>
  <path class="st2" d="M102.22,178.39c-4.16,0-7.54,3.38-7.54,7.54s3.38,7.54,7.54,7.54,7.54-3.38,7.54-7.54-3.38-7.54-7.54-7.54Z"/>
  <path class="st2" d="M79.95,178.39c-4.16,0-7.54,3.38-7.54,7.54s3.38,7.54,7.54,7.54,7.54-3.38,7.54-7.54-3.38-7.54-7.54-7.54Z"/>
  <path class="st4" d="M79.95,178.39c-4.16,0-7.54,3.38-7.54,7.54s3.38,7.54,7.54,7.54,7.54-3.38,7.54-7.54-3.38-7.54-7.54-7.54Z"/>
  <path class="st2" d="M59.31,178.39c-4.16,0-7.54,3.38-7.54,7.54s3.38,7.54,7.54,7.54,7.54-3.38,7.54-7.54-3.38-7.54-7.54-7.54Z"/>
  <path class="st4" d="M59.31,178.39c-4.16,0-7.54,3.38-7.54,7.54s3.38,7.54,7.54,7.54,7.54-3.38,7.54-7.54-3.38-7.54-7.54-7.54Z"/>
  <path class="st3" d="M37.08,24.61s6.21-12.41,16.14-10.92c0,0-3.48,2.36-3.48,5.4,0,0,7.45-2.67,17.38-1.43,9.93,1.24,13.91-2.98,13.91-2.98,0,0-2.73,31.04-43.96,9.93"/>
  <path class="st2" d="M173.13,88.64s-69.18-58.12-114.01,0c0,0-24.25,36.16,8.08,85.51,0,0,14.46-60.83,105.92-49.77,0,0-28.93-31.88-76.57-9.56,0,0,17.87-23.62,76.57-10.43,0,0-44.24-29.18-80.83-10.97,0,0,20.42-23.91,80.83-4.77"/>
  <path class="st2" d="M36.58,29.51s11.49,13.23,2.98,64.47c-8.51,51.24,21.27,80.16,21.27,80.16,0,0-42.97-74.85,14.89-105.27,0,0-5.95-31.28-39.14-39.36"/>
  <path class="st1" d="M32.57,29.79s-10.1-2.77-17.1,1.95c0,0,18.89,9.61,23.45,18.56,0,0-1.47-11.07-6.35-20.51"/>
  <path class="st3" d="M38.92,54.91s3.3,29.21-8.16,29.21-3.64-23.66,8.16-29.21"/>
</svg>