<?xml version="1.0" encoding="UTF-8"?>
<svg id="Capa_1" data-name="Capa 1" xmlns="http://www.w3.org/2000/svg" viewBox="0 0 366.02 202.91">
  <defs>
    <style>
      .cls-1, .cls-2, .cls-3 {
        fill: #1d1d1b;
      }

      .cls-2 {
        stroke: #1d1d1b;
        stroke-miterlimit: 22.93;
        stroke-width: .09px;
      }

      .cls-3 {
        fill-rule: evenodd;
      }
    </style>
  </defs>
  <g>
    <path class="cls-1" d="M197.11,62.81v-1.68h1.87l5.29-15.04h-2.32v-1.7h9.17v1.7h-2.4l5.35,15.04h1.65v1.68h-7.13v-1.68h2.47l-1.37-4.03h-6.64l-1.43,4.03h2.44v1.68h-6.95ZM203.67,55.36h5.41l-2.64-8.33-2.77,8.33ZM188.14,65.67v-1.92h.61c1.11,0,1.86-.16,2.26-.47.4-.32.6-.94.6-1.88v-15.32h-2.44v-1.7h7.89v1.7h-2.4v15.12c0,1.5-.47,2.62-1.39,3.36-.93.74-2.34,1.11-4.21,1.11h-.92ZM168.99,62.81v-1.68h2.44v-15.04h-2.44v-1.7h5.74l7.38,13.86v-12.15h-2.4v-1.7h7.38v1.7h-2.4v16.91h-2.65l-8.07-15.03v13.17h2.4v1.68h-7.38ZM149.16,62.81v-1.68h1.87l5.29-15.04h-2.32v-1.7h9.17v1.7h-2.4l5.35,15.04h1.65v1.68h-7.13v-1.68h2.47l-1.37-4.03h-6.64l-1.43,4.03h2.44v1.68h-6.95ZM155.72,55.36h5.41l-2.64-8.33-2.77,8.33ZM131.13,62.81v-1.68h2.44v-15.04h-2.44v-1.7h8.38c2.55,0,4.31.31,5.32.92,1,.62,1.51,1.68,1.51,3.2v1.24c0,1.1-.29,1.9-.86,2.39-.57.49-1.6.84-3.09,1.04,1.51.11,2.54.36,3.11.76.57.4.85,1.08.85,2.02v5.16h2.4v1.68h-5.31v-6.79c0-.76-.23-1.28-.69-1.56-.46-.28-1.33-.42-2.62-.42h-3.5v7.09h2.4v1.68h-7.89ZM136.62,52.28h3.15c1.22,0,2.12-.18,2.69-.55.57-.37.85-.94.85-1.72v-1.75c0-.79-.25-1.34-.76-1.65-.51-.31-1.45-.46-2.83-.46h-3.12v6.14ZM126.85,61.72c-.63.5-1.3.87-2.02,1.1-.72.24-1.53.36-2.43.36-2.03,0-3.6-.5-4.71-1.5-1.11-1-1.66-2.41-1.66-4.24v-8.16c0-1.61.56-2.9,1.68-3.84,1.12-.94,2.64-1.42,4.55-1.42.85,0,1.64.14,2.38.42.73.28,1.36.69,1.86,1.2v-1.29h2.19v5.1h-2.38l-.04-.4c-.16-1.12-.52-1.93-1.07-2.43-.54-.5-1.33-.75-2.36-.75-1.27,0-2.2.29-2.8.88-.59.59-.89,1.5-.89,2.75v8.18c0,1.25.29,2.16.88,2.73.59.57,1.52.86,2.81.86,1.2,0,2.11-.31,2.75-.92.63-.62.94-1.52.94-2.72v-1.57h-2.52v-1.95h5.28v8.69h-1.44l-1-1.08Z"/>
    <path class="cls-1" d="M197.11,62.81v-1.68h1.87l5.29-15.04h-2.32v-1.7h9.17v1.7h-2.4l5.35,15.04h1.65v1.68h-7.13v-1.68h2.47l-1.37-4.03h-6.64l-1.43,4.03h2.44v1.68h-6.95ZM203.67,55.36h5.41l-2.64-8.33-2.77,8.33ZM188.14,65.67v-1.92h.61c1.11,0,1.86-.16,2.26-.47.4-.32.6-.94.6-1.88v-15.32h-2.44v-1.7h7.89v1.7h-2.4v15.12c0,1.5-.47,2.62-1.39,3.36-.93.74-2.34,1.11-4.21,1.11h-.92ZM168.99,62.81v-1.68h2.44v-15.04h-2.44v-1.7h5.74l7.38,13.86v-12.15h-2.4v-1.7h7.38v1.7h-2.4v16.91h-2.65l-8.07-15.03v13.17h2.4v1.68h-7.38ZM149.16,62.81v-1.68h1.87l5.29-15.04h-2.32v-1.7h9.17v1.7h-2.4l5.35,15.04h1.65v1.68h-7.13v-1.68h2.47l-1.37-4.03h-6.64l-1.43,4.03h2.44v1.68h-6.95ZM155.72,55.36h5.41l-2.64-8.33-2.77,8.33ZM131.13,62.81v-1.68h2.44v-15.04h-2.44v-1.7h8.38c2.55,0,4.31.31,5.32.92,1,.62,1.51,1.68,1.51,3.2v1.24c0,1.1-.29,1.9-.86,2.39-.57.49-1.6.84-3.09,1.04,1.51.11,2.54.36,3.11.76.57.4.85,1.08.85,2.02v5.16h2.4v1.68h-5.31v-6.79c0-.76-.23-1.28-.69-1.56-.46-.28-1.33-.42-2.62-.42h-3.5v7.09h2.4v1.68h-7.89ZM136.62,52.28h3.15c1.22,0,2.12-.18,2.69-.55.57-.37.85-.94.85-1.72v-1.75c0-.79-.25-1.34-.76-1.65-.51-.31-1.45-.46-2.83-.46h-3.12v6.14ZM126.85,61.72c-.63.5-1.3.87-2.02,1.1-.72.24-1.53.36-2.43.36-2.03,0-3.6-.5-4.71-1.5-1.11-1-1.66-2.41-1.66-4.24v-8.16c0-1.61.56-2.9,1.68-3.84,1.12-.94,2.64-1.42,4.55-1.42.85,0,1.64.14,2.38.42.73.28,1.36.69,1.86,1.2v-1.29h2.19v5.1h-2.38l-.04-.4c-.16-1.12-.52-1.93-1.07-2.43-.54-.5-1.33-.75-2.36-.75-1.27,0-2.2.29-2.8.88-.59.59-.89,1.5-.89,2.75v8.18c0,1.25.29,2.16.88,2.73.59.57,1.52.86,2.81.86,1.2,0,2.11-.31,2.75-.92.63-.62.94-1.52.94-2.72v-1.57h-2.52v-1.95h5.28v8.69h-1.44l-1-1.08Z"/>
  </g>
  <path class="cls-1" d="M346,105.24c-1.4.3-2.67.98-3.82,2.04-1.15,1.06-2.15,2.31-3.03,3.76-.87,1.44-1.58,2.98-2.13,4.62-.55,1.63-.96,3.17-1.21,4.62,2.59-1.23,4.84-2.9,6.75-5,1.91-2.1,3.31-4.62,4.2-7.55v.06c.13-.34.2-.68.22-1.02.02-.34.01-.64-.03-.89-.13-.59-.45-.81-.96-.64M350.97,110.46c-1.32,3.82-3.28,7.01-5.89,9.55-2.61,2.55-5.7,4.44-9.27,5.67.25,1.15.69,2.23,1.31,3.25.62,1.02,1.43,1.63,2.45,1.85l-.13-.06c.89.21,1.86.15,2.9-.19,1.04-.34,2.11-.94,3.22-1.82,1.1-.87,2.19-2.01,3.25-3.41,1.06-1.4,2.06-3.06,2.99-4.97.47-1.02.9-2.07,1.31-3.15.4-1.08.77-2.11,1.11-3.09.3-.55.73-.85,1.31-.89.57-.04,1.1.1,1.59.41.49.32.87.76,1.15,1.34.28.57.29,1.22.03,1.94l-.83,2.29c-.76,1.91-1.72,4.02-2.87,6.34-1.15,2.31-2.61,4.55-4.39,6.72-1.06,1.19-2.17,2.11-3.31,2.77-1.15.66-2.25,1.15-3.31,1.46-1.06.32-2.03.51-2.9.57-.87.06-1.56.1-2.07.1-3.31,0-6.02-.96-8.12-2.87-2.1-1.91-3.47-4.52-4.11-7.83-.55-2.89-.54-5.71.03-8.47.57-2.76,1.67-5.75,3.28-8.98.55-1.06,1.34-2.2,2.36-3.41,1.02-1.21,2.2-2.32,3.53-3.34,1.34-1.02,2.79-1.85,4.36-2.48,1.57-.64,3.21-.93,4.9-.89,1.78.04,3.3.63,4.55,1.75,1.25,1.13,2.03,2.64,2.32,4.55.13.85.14,1.71.03,2.58-.11.87-.37,1.79-.8,2.77v-.06ZM311.04,101.93c-.72.25-1.36.25-1.91,0-.55-.25-.97-.63-1.24-1.11-.28-.49-.38-1.03-.32-1.62.06-.59.39-1.13.99-1.59,2.67-2.12,5.48-3.93,8.41-5.41.72-2.76,1.29-5.31,1.72-7.64.42-2.34.72-4.52.89-6.56.55-.34,1.35-.33,2.39.03,1.04.36,2.05.92,3.03,1.69.98.76,1.83,1.65,2.55,2.64.72,1,1.04,1.96.96,2.9-.08.34-.18.79-.29,1.34-.11.55-.27,1.19-.48,1.91,2.59-.51,5.29-.76,8.09-.76.42,0,.99.01,1.69.03.7.02,1.26.05,1.69.1.3.64.46,1.33.48,2.07.02.74-.07,1.44-.29,2.1-.21.66-.51,1.22-.89,1.69-.38.47-.83.7-1.34.7-.47-.04-.93-.07-1.4-.1-.47-.02-.93-.03-1.4-.03-1.49,0-2.93.08-4.33.25-1.4.17-2.82.42-4.27.76l-1.72,5.8-.25.83c-.25.81-.59,1.91-1.02,3.31-.42,1.4-.88,2.96-1.37,4.68-.49,1.72-.98,3.52-1.46,5.41-.49,1.89-.91,3.71-1.27,5.48-.36,1.76-.63,3.39-.8,4.87-.17,1.49-.17,2.68,0,3.57v.51h.45c1.1-.42,2.09-1.11,2.96-2.07.87-.96,1.66-2.04,2.36-3.25.7-1.21,1.34-2.5,1.91-3.88.57-1.38,1.11-2.73,1.62-4.04h-.06c.13-.38.29-.75.48-1.11.19-.36.35-.71.48-1.05.08-.25.36-.32.83-.19.47.13.96.34,1.46.64.51.3.94.65,1.31,1.05.36.4.5.75.41,1.05l-1.15,2.87c-.98,2.42-2.07,4.87-3.28,7.36-1.21,2.48-2.62,4.66-4.24,6.53-.3.34-.68.71-1.15,1.11-.47.4-1,.77-1.59,1.11-.59.34-1.25.63-1.97.86-.72.23-1.51.35-2.36.35-1.91-.08-3.41-.87-4.49-2.36-1.08-1.49-1.79-3.31-2.13-5.48-.08-.47-.14-.97-.16-1.5-.02-.53-.03-1.01-.03-1.43-.04-4.37.45-8.68,1.46-12.93,1.02-4.25,2.14-8.39,3.38-12.42l.45-1.27c-.59.34-1.19.69-1.78,1.05-.59.36-1.19.73-1.78,1.11l-.19.06ZM297.15,115.68c-.08-.34-.14-.69-.16-1.05-.02-.36-.05-.71-.1-1.05l-1.46,3.57-.06.06c.21.34.49.92.83,1.75.34.83.65,1.7.92,2.61.28.91.45,1.78.51,2.61.06.83-.05,1.43-.35,1.82-.47-.68-1.02-1.07-1.66-1.18-.64-.11-1.22-.01-1.75.29-.53.3-.98.71-1.34,1.24-.36.53-.5,1.07-.41,1.62.04.21.14.48.29.8.15.32.31.63.48.92.47.68,1.06,1.18,1.78,1.5.72.32,1.38.52,1.97.6.68.08,1.23-.02,1.66-.32.42-.3.75-.7.99-1.21.23-.51.37-1.1.41-1.78.04-.68,0-1.4-.13-2.17-.13-.76-.3-1.55-.51-2.36-.21-.81-.42-1.63-.64-2.48-.21-.89-.44-1.83-.67-2.8-.23-.98-.44-1.97-.61-2.99ZM286.71,127.47c-.25-1.78-.14-3.52.35-5.22.49-1.7,1.28-3.06,2.39-4.08l1.02-2.29c.81-2.04,1.63-4.05,2.48-6.05.85-2,1.78-3.93,2.8-5.8l1.02-2.04c.55-1.15,1.19-2.38,1.91-3.69.72-1.32,1.87-2.84,3.44-4.59.72.34,1.6.82,2.64,1.43,1.04.62,1.97,1.29,2.8,2.04.83.74,1.41,1.52,1.75,2.32.34.81.17,1.53-.51,2.17l.13-.06c-.59.72-1.01,1.27-1.24,1.66-.23.38-.48.87-.73,1.46l-.57,1.27c-.59,1.49-.92,3.06-.99,4.71-.06,1.66.03,3.29.29,4.9.13.89.3,1.79.51,2.71.21.91.42,1.84.64,2.77l.76,3.82c.38,1.91.42,3.66.13,5.25-.3,1.59-.87,2.94-1.72,4.04-.85,1.1-1.94,1.94-3.28,2.52-1.34.57-2.83.82-4.49.73-1.74-.13-3.28-.49-4.62-1.08-1.34-.59-2.48-1.34-3.44-2.23-.96-.89-1.72-1.91-2.29-3.06-.57-1.15-.97-2.36-1.18-3.63ZM282.89,105.24c-1.4.3-2.67.98-3.82,2.04-1.15,1.06-2.15,2.31-3.03,3.76-.87,1.44-1.58,2.98-2.13,4.62-.55,1.63-.96,3.17-1.21,4.62,2.59-1.23,4.84-2.9,6.75-5,1.91-2.1,3.31-4.62,4.2-7.55v.06c.13-.34.2-.68.22-1.02.02-.34.01-.64-.03-.89-.13-.59-.45-.81-.96-.64ZM287.85,110.46c-1.32,3.82-3.28,7.01-5.89,9.55-2.61,2.55-5.7,4.44-9.27,5.67.25,1.15.69,2.23,1.31,3.25.62,1.02,1.43,1.63,2.45,1.85l-.13-.06c.89.21,1.86.15,2.9-.19s2.11-.94,3.22-1.82c1.1-.87,2.19-2.01,3.25-3.41,1.06-1.4,2.06-3.06,2.99-4.97.47-1.02.9-2.07,1.31-3.15.4-1.08.77-2.11,1.11-3.09.3-.55.73-.85,1.31-.89.57-.04,1.1.1,1.59.41.49.32.87.76,1.15,1.34.28.57.29,1.22.03,1.94l-.83,2.29c-.76,1.91-1.72,4.02-2.87,6.34-1.15,2.31-2.61,4.55-4.39,6.72-1.06,1.19-2.17,2.11-3.31,2.77-1.15.66-2.25,1.15-3.31,1.46-1.06.32-2.03.51-2.9.57-.87.06-1.56.1-2.07.1-3.31,0-6.02-.96-8.12-2.87-2.1-1.91-3.47-4.52-4.11-7.83-.55-2.89-.54-5.71.03-8.47.57-2.76,1.67-5.75,3.28-8.98.55-1.06,1.34-2.2,2.36-3.41,1.02-1.21,2.2-2.32,3.53-3.34,1.34-1.02,2.79-1.85,4.36-2.48,1.57-.64,3.21-.93,4.9-.89,1.78.04,3.3.63,4.55,1.75,1.25,1.13,2.03,2.64,2.32,4.55.13.85.14,1.71.03,2.58-.11.87-.37,1.79-.8,2.77v-.06ZM223.28,94.92c1.19,0,2.37.36,3.53,1.08,1.17.72,2.15,1.55,2.96,2.48.81.93,1.35,1.84,1.62,2.71.28.87.16,1.45-.35,1.75-2,.55-3.83,1.5-5.51,2.83-1.68,1.34-3.13,2.94-4.36,4.81.42,1.78,1.01,3.48,1.75,5.09.74,1.61,1.73,3.14,2.96,4.59.25.51.12.92-.41,1.24-.53.32-1.19.53-1.97.64-.79.11-1.57.1-2.36-.03-.79-.13-1.33-.38-1.62-.76-.34-.51-.64-1.01-.89-1.5-.25-.49-.49-1.01-.7-1.56-.59,2.51-.72,4.9-.38,7.2.21,1.4.65,2.72,1.31,3.95.66,1.23,1.55,2.29,2.67,3.18,1.13.89,2.51,1.6,4.14,2.13,1.63.53,3.58.8,5.83.8,2.42,0,4.74-.75,6.97-2.26,2.23-1.51,4.29-3.52,6.18-6.05,1.89-2.53,3.58-5.42,5.06-8.69,1.49-3.27,2.7-6.68,3.63-10.22.93-3.55,1.55-7.08,1.85-10.6.3-3.52.21-6.79-.25-9.81-.3-1.83-.75-3.52-1.37-5.09-.62-1.57-1.43-2.92-2.45-4.04-1.02-1.13-2.24-2.02-3.66-2.67-1.42-.66-3.05-1.01-4.87-1.05-2.46-.04-4.81.48-7.04,1.56-2.23,1.08-4.27,2.57-6.11,4.46-1.85,1.89-3.45,4.1-4.81,6.62-1.36,2.53-2.4,5.19-3.12,7.99l1.4-.7.38-.06ZM211.3,123.01c-.51-3.18-.51-6.42,0-9.71.51-3.29,1.44-6.32,2.8-9.08-.13-3.06.17-6.06.89-9.01.72-2.95,1.74-5.75,3.06-8.41,1.32-2.65,2.9-5.11,4.74-7.36,1.85-2.25,3.82-4.21,5.92-5.89,2.1-1.68,4.3-3.03,6.59-4.04,2.29-1.02,4.56-1.61,6.81-1.78,3.18,0,6.06.55,8.63,1.66,2.57,1.1,4.8,2.62,6.69,4.55,1.89,1.93,3.44,4.22,4.65,6.88,1.21,2.65,2.07,5.51,2.58,8.57.59,3.65.72,7.52.38,11.59-.34,4.08-1.07,8.09-2.2,12.04-1.13,3.95-2.64,7.73-4.55,11.34s-4.17,6.76-6.78,9.46c-2.61,2.7-5.55,4.82-8.82,6.37-3.27,1.55-6.81,2.26-10.64,2.13-3.18-.13-5.99-.73-8.41-1.82-2.42-1.08-4.48-2.5-6.18-4.27-1.7-1.76-3.06-3.78-4.08-6.05-1.02-2.27-1.72-4.66-2.1-7.16ZM195,101.93c-.25.81-.59,1.91-1.02,3.31-.42,1.4-.88,2.96-1.37,4.68-.49,1.72-.98,3.52-1.46,5.41-.49,1.89-.91,3.71-1.27,5.48-.36,1.76-.63,3.39-.8,4.87-.17,1.49-.17,2.68,0,3.57v.51h.45c1.1-.42,2.09-1.11,2.96-2.07.87-.96,1.66-2.04,2.36-3.25.7-1.21,1.34-2.5,1.91-3.88.57-1.38,1.11-2.73,1.62-4.04h-.06c.13-.38.29-.75.48-1.11.19-.36.35-.71.48-1.05.08-.25.36-.32.83-.19.47.13.96.34,1.46.64.51.3.94.65,1.31,1.05.36.4.5.75.41,1.05l-1.15,2.87c-.98,2.42-2.07,4.87-3.28,7.36-1.21,2.48-2.62,4.66-4.24,6.53-.3.34-.68.71-1.15,1.11-.47.4-1,.77-1.59,1.11-.59.34-1.25.63-1.97.86-.72.23-1.51.35-2.36.35-1.91-.08-3.41-.87-4.49-2.36-1.08-1.49-1.79-3.31-2.13-5.48-.08-.47-.14-.97-.16-1.5-.02-.53-.03-1.01-.03-1.43-.08-4.25.36-8.37,1.34-12.39.98-4.01,2.04-7.97,3.18-11.88l1.66-5.35c.42-1.61.85-3.26,1.27-4.94.42-1.68.82-3.32,1.18-4.94.36-1.61.66-3.17.89-4.68.23-1.51.41-2.9.54-4.17.55-.34,1.35-.33,2.39.03,1.04.36,2.05.92,3.03,1.69.98.76,1.83,1.65,2.55,2.64.72,1,1.04,1.96.96,2.9-.13.64-.35,1.55-.67,2.74-.32,1.19-.68,2.53-1.08,4.01-.4,1.49-.85,3.03-1.34,4.62-.49,1.59-.94,3.09-1.37,4.49l-.25.83ZM173.79,105.24c-1.4.3-2.68.98-3.82,2.04-1.15,1.06-2.15,2.31-3.03,3.76-.87,1.44-1.58,2.98-2.13,4.62-.55,1.63-.96,3.17-1.21,4.62,2.59-1.23,4.84-2.9,6.75-5,1.91-2.1,3.31-4.62,4.2-7.55v.06c.13-.34.2-.68.22-1.02.02-.34.01-.64-.03-.89-.13-.59-.45-.81-.96-.64ZM178.76,110.46c-1.32,3.82-3.28,7.01-5.89,9.55-2.61,2.55-5.7,4.44-9.27,5.67.25,1.15.69,2.23,1.31,3.25.62,1.02,1.43,1.63,2.45,1.85l-.13-.06c.89.21,1.86.15,2.9-.19s2.11-.94,3.22-1.82c1.1-.87,2.19-2.01,3.25-3.41,1.06-1.4,2.06-3.06,2.99-4.97.47-1.02.9-2.07,1.31-3.15.4-1.08.77-2.11,1.11-3.09.3-.55.73-.85,1.31-.89.57-.04,1.1.1,1.59.41.49.32.87.76,1.15,1.34.28.57.29,1.22.03,1.94l-.83,2.29c-.76,1.91-1.72,4.02-2.87,6.34-1.15,2.31-2.61,4.55-4.39,6.72-1.06,1.19-2.17,2.11-3.31,2.77-1.15.66-2.25,1.15-3.31,1.46-1.06.32-2.03.51-2.9.57-.87.06-1.56.1-2.07.1-3.31,0-6.02-.96-8.12-2.87-2.1-1.91-3.47-4.52-4.11-7.83-.55-2.89-.54-5.71.03-8.47.57-2.76,1.67-5.75,3.28-8.98.55-1.06,1.34-2.2,2.36-3.41,1.02-1.21,2.2-2.32,3.53-3.34,1.34-1.02,2.79-1.85,4.36-2.48,1.57-.64,3.21-.93,4.9-.89,1.78.04,3.3.63,4.55,1.75,1.25,1.13,2.03,2.64,2.32,4.55.13.85.14,1.71.03,2.58-.11.87-.37,1.79-.8,2.77v-.06ZM130.1,128.8c.55-.17,1.19-.65,1.91-1.43.72-.79,1.43-1.71,2.13-2.77.7-1.06,1.38-2.2,2.04-3.41.66-1.21,1.2-2.3,1.62-3.28l.38-2.23c.3-1.4.62-2.81.96-4.24.34-1.42.72-2.83,1.15-4.24-.21-.64-.55-1.19-1.02-1.66-.47-.47-1.06-.74-1.78-.83-1.57-.04-3,.52-4.3,1.69-1.29,1.17-2.41,2.64-3.34,4.43-.93,1.78-1.7,3.69-2.29,5.73-.59,2.04-.98,3.89-1.15,5.54-.08.47-.12,1.05-.1,1.75.02.7.1,1.39.22,2.07.13.98.45,1.78.96,2.42.51.64,1.38.79,2.61.45ZM146.09,122.18c-.3,1.23-.5,2.46-.61,3.69-.11,1.23-.1,2.29.03,3.18.08.42.06.66-.06.7h.64c1.1-.42,2.1-1.13,2.99-2.1.89-.98,1.7-2.09,2.42-3.34.72-1.25,1.37-2.59,1.94-4.01.57-1.42,1.11-2.79,1.62-4.11.34-.64.57-1.21.7-1.72.13-.21.44-.27.92-.16.49.11.99.31,1.5.61.51.3.96.65,1.34,1.05.38.4.51.75.38,1.05l-1.02,2.55v.06c-.98,2.51-2.06,4.98-3.25,7.42-1.19,2.44-2.67,4.64-4.46,6.59-.3.34-.66.71-1.08,1.11-.42.4-.93.79-1.53,1.15-.59.36-1.25.66-1.97.89-.72.23-1.53.33-2.42.29-2.08-.17-3.74-.88-4.97-2.13-1.23-1.25-2.08-2.83-2.55-4.74-1.27,1.78-2.69,3.31-4.24,4.59-1.55,1.27-3.19,1.93-4.94,1.97-1.66-.17-3.09-.63-4.3-1.37-1.21-.74-2.22-1.62-3.03-2.64-.81-1.02-1.43-2.11-1.88-3.28-.45-1.17-.75-2.26-.92-3.28-.13-.93-.19-1.7-.19-2.29-.08-1.57.06-3.29.45-5.16.38-1.87.93-3.74,1.66-5.6.72-1.87,1.63-3.67,2.74-5.41,1.1-1.74,2.34-3.29,3.69-4.65,1.36-1.36,2.86-2.44,4.49-3.25,1.63-.81,3.39-1.21,5.25-1.21.55,0,1.1.04,1.66.13.55.08,1.15.21,1.78.38,1.23.42,2.31,1.13,3.25,2.1l.32-.83,1.21-3.69c.55-1.57,1.05-3.21,1.5-4.9.45-1.7.84-3.36,1.18-5,.34-1.63.63-3.21.86-4.71.23-1.51.39-2.88.48-4.11.51-.34,1.28-.33,2.32.03,1.04.36,2.07.91,3.09,1.66,1.02.74,1.88,1.62,2.58,2.64.7,1.02.99,2,.86,2.93-.08.51-.28,1.36-.57,2.55-.3,1.19-.66,2.53-1.08,4.01-.42,1.49-.89,3.05-1.4,4.68-.51,1.63-1,3.17-1.46,4.62l-1.08,3.5v-.06c-.85,2.67-1.7,5.46-2.55,8.34-.85,2.89-1.57,5.99-2.17,9.3h-.13Z"/>
  <g>
    <path class="cls-3" d="M21.76,49.17s4.08-8.16,10.62-7.18c0,0-2.29,1.55-2.29,3.55,0,0,4.9-1.76,11.43-.94,6.53.82,9.15-1.96,9.15-1.96,0,0-1.8,20.41-28.91,6.53"/>
    <path class="cls-3" d="M111.22,91.28s-45.49-38.22-74.97,0c0,0-15.94,23.78,5.32,56.23,0,0,9.51-40,69.66-32.73,0,0-19.02-20.97-50.35-6.29,0,0,11.75-15.53,50.35-6.86,0,0-29.09-19.19-53.15-7.22,0,0,13.43-15.72,53.15-3.13"/>
    <path class="cls-3" d="M21.43,52.4s7.55,8.7,1.96,42.4c-5.59,33.69,13.99,52.72,13.99,52.72,0,0-28.25-49.22,9.79-69.23,0,0-3.92-20.57-25.74-25.88"/>
    <path class="cls-3" d="M18.79,52.58s-6.64-1.82-11.24,1.28c0,0,12.42,6.32,15.42,12.21,0,0-.96-7.28-4.18-13.49"/>
    <path class="cls-3" d="M22.96,69.1s2.17,19.21-5.37,19.21-2.39-15.56,5.37-19.21"/>
    <path class="cls-3" d="M21.76,49.17s4.08-8.16,10.62-7.18c0,0-2.29,1.55-2.29,3.55,0,0,4.9-1.76,11.43-.94,6.53.82,9.15-1.96,9.15-1.96,0,0-1.8,20.41-28.91,6.53"/>
    <path class="cls-3" d="M111.22,91.28s-45.49-38.22-74.97,0c0,0-15.94,23.78,5.32,56.23,0,0,9.51-40,69.66-32.73,0,0-19.02-20.97-50.35-6.29,0,0,11.75-15.53,50.35-6.86,0,0-29.09-19.19-53.15-7.22,0,0,13.43-15.72,53.15-3.13"/>
    <path class="cls-3" d="M21.43,52.4s7.55,8.7,1.96,42.4c-5.59,33.69,13.99,52.72,13.99,52.72,0,0-28.25-49.22,9.79-69.23,0,0-3.92-20.57-25.74-25.88"/>
    <path class="cls-3" d="M18.79,52.58s-6.64-1.82-11.24,1.28c0,0,12.42,6.32,15.42,12.21,0,0-.96-7.28-4.18-13.49"/>
    <path class="cls-3" d="M22.96,69.1s2.17,19.21-5.37,19.21-2.39-15.56,5.37-19.21"/>
  </g>
  <g>
    <path class="cls-3" d="M64.67,150.97c-2.77,0-5.02,2.25-5.02,5.02s2.25,5.02,5.02,5.02,5.02-2.25,5.02-5.02-2.25-5.02-5.02-5.02Z"/>
    <path class="cls-2" d="M64.67,150.97c-2.77,0-5.02,2.25-5.02,5.02s2.25,5.02,5.02,5.02,5.02-2.25,5.02-5.02-2.25-5.02-5.02-5.02Z"/>
    <path class="cls-3" d="M49.85,150.97c-2.77,0-5.02,2.25-5.02,5.02s2.25,5.02,5.02,5.02,5.02-2.25,5.02-5.02-2.25-5.02-5.02-5.02Z"/>
    <path class="cls-2" d="M49.85,150.97c-2.77,0-5.02,2.25-5.02,5.02s2.25,5.02,5.02,5.02,5.02-2.25,5.02-5.02-2.25-5.02-5.02-5.02Z"/>
    <path class="cls-3" d="M36.11,150.97c-2.77,0-5.02,2.25-5.02,5.02s2.25,5.02,5.02,5.02,5.02-2.25,5.02-5.02-2.25-5.02-5.02-5.02Z"/>
    <path class="cls-2" d="M36.11,150.97c-2.77,0-5.02,2.25-5.02,5.02s2.25,5.02,5.02,5.02,5.02-2.25,5.02-5.02-2.25-5.02-5.02-5.02Z"/>
    <path class="cls-3" d="M64.67,150.97c-2.77,0-5.02,2.25-5.02,5.02s2.25,5.02,5.02,5.02,5.02-2.25,5.02-5.02-2.25-5.02-5.02-5.02Z"/>
    <path class="cls-3" d="M49.85,150.97c-2.77,0-5.02,2.25-5.02,5.02s2.25,5.02,5.02,5.02,5.02-2.25,5.02-5.02-2.25-5.02-5.02-5.02Z"/>
    <path class="cls-2" d="M49.85,150.97c-2.77,0-5.02,2.25-5.02,5.02s2.25,5.02,5.02,5.02,5.02-2.25,5.02-5.02-2.25-5.02-5.02-5.02Z"/>
    <path class="cls-3" d="M36.11,150.97c-2.77,0-5.02,2.25-5.02,5.02s2.25,5.02,5.02,5.02,5.02-2.25,5.02-5.02-2.25-5.02-5.02-5.02Z"/>
    <path class="cls-2" d="M36.11,150.97c-2.77,0-5.02,2.25-5.02,5.02s2.25,5.02,5.02,5.02,5.02-2.25,5.02-5.02-2.25-5.02-5.02-5.02Z"/>
  </g>
</svg>