<?xml version="1.0" encoding="UTF-8"?>
<svg id="Capa_1" xmlns="http://www.w3.org/2000/svg" version="1.1" viewBox="0 0 366.02 202.91">
  <!-- Generator: Adobe Illustrator 29.8.4, SVG Export Plug-In . SVG Version: 2.1.1 Build 6)  -->
  <defs>
    <style>
      .st0 {
        fill: none;
        stroke: #ef7d00;
        stroke-miterlimit: 22.93;
        stroke-width: .08px;
      }

      .st1 {
        fill: #fff;
      }

      .st1, .st2, .st3, .st4 {
        fill-rule: evenodd;
      }

      .st2 {
        fill: #ffec4b;
      }

      .st4 {
        fill: #e30613;
      }

      .st5 {
        fill: #ef7d00;
      }
    </style>
  </defs>
  <g>
    <path class="st5" d="M195.59,67.34v-1.64h1.83l5.19-14.74h-2.28v-1.67h8.99v1.67h-2.35l5.24,14.74h1.62v1.64h-6.99v-1.64h2.42l-1.34-3.95h-6.51l-1.4,3.95h2.39v1.64h-6.82ZM202.02,60.04h5.3l-2.59-8.16-2.71,8.16ZM186.8,70.15v-1.88h.6c1.08,0,1.83-.15,2.22-.46.39-.31.59-.92.59-1.84v-15.01h-2.39v-1.67h7.73v1.67h-2.35v14.82c0,1.47-.46,2.56-1.36,3.29-.91.72-2.29,1.09-4.13,1.09h-.9ZM168.04,67.34v-1.64h2.39v-14.74h-2.39v-1.67h5.62l7.24,13.58v-11.91h-2.35v-1.67h7.24v1.67h-2.35v16.57h-2.6l-7.9-14.73v12.9h2.35v1.64h-7.24ZM148.6,67.34v-1.64h1.83l5.19-14.74h-2.28v-1.67h8.99v1.67h-2.35l5.24,14.74h1.62v1.64h-6.99v-1.64h2.42l-1.34-3.95h-6.51l-1.4,3.95h2.39v1.64h-6.82ZM155.03,60.04h5.3l-2.59-8.16-2.71,8.16ZM130.93,67.34v-1.64h2.39v-14.74h-2.39v-1.67h8.21c2.49,0,4.23.3,5.21.91.98.61,1.48,1.65,1.48,3.13v1.22c0,1.08-.28,1.86-.84,2.34-.56.48-1.57.82-3.03,1.02,1.48.11,2.49.35,3.04.75.56.39.83,1.06.83,1.98v5.06h2.35v1.64h-5.2v-6.65c0-.74-.23-1.25-.68-1.52-.45-.28-1.31-.42-2.56-.42h-3.43v6.95h2.35v1.64h-7.73ZM136.31,57.02h3.09c1.2,0,2.08-.18,2.64-.54.56-.36.84-.92.84-1.69v-1.72c0-.78-.25-1.32-.74-1.62-.5-.3-1.42-.46-2.77-.46h-3.06v6.02ZM126.74,66.27c-.61.49-1.28.85-1.98,1.08-.7.23-1.5.35-2.38.35-1.99,0-3.53-.49-4.62-1.47-1.08-.98-1.63-2.36-1.63-4.16v-8c0-1.58.55-2.84,1.65-3.76,1.1-.92,2.59-1.39,4.46-1.39.84,0,1.61.14,2.33.42.72.28,1.33.67,1.82,1.18v-1.26h2.14v4.99h-2.33l-.04-.39c-.16-1.1-.51-1.89-1.05-2.38-.53-.49-1.31-.73-2.31-.73-1.25,0-2.16.29-2.75.86-.58.57-.87,1.47-.87,2.69v8.01c0,1.22.29,2.12.87,2.68.57.56,1.49.84,2.75.84,1.18,0,2.07-.3,2.69-.91.61-.61.93-1.49.93-2.67v-1.54h-2.47v-1.91h5.18v8.51h-1.41l-.98-1.06Z"/>
    <path class="st0" d="M195.59,67.34v-1.64h1.83l5.19-14.74h-2.28v-1.67h8.99v1.67h-2.35l5.24,14.74h1.62v1.64h-6.99v-1.64h2.42l-1.34-3.95h-6.51l-1.4,3.95h2.39v1.64h-6.82ZM202.02,60.04h5.3l-2.59-8.16-2.71,8.16ZM186.8,70.15v-1.88h.6c1.08,0,1.83-.15,2.22-.46.39-.31.59-.92.59-1.84v-15.01h-2.39v-1.67h7.73v1.67h-2.35v14.82c0,1.47-.46,2.56-1.36,3.29-.91.72-2.29,1.09-4.13,1.09h-.9ZM168.04,67.34v-1.64h2.39v-14.74h-2.39v-1.67h5.62l7.24,13.58v-11.91h-2.35v-1.67h7.24v1.67h-2.35v16.57h-2.6l-7.9-14.73v12.9h2.35v1.64h-7.24ZM148.6,67.34v-1.64h1.83l5.19-14.74h-2.28v-1.67h8.99v1.67h-2.35l5.24,14.74h1.62v1.64h-6.99v-1.64h2.42l-1.34-3.95h-6.51l-1.4,3.95h2.39v1.64h-6.82ZM155.03,60.04h5.3l-2.59-8.16-2.71,8.16ZM130.93,67.34v-1.64h2.39v-14.74h-2.39v-1.67h8.21c2.49,0,4.23.3,5.21.91.98.61,1.48,1.65,1.48,3.13v1.22c0,1.08-.28,1.86-.84,2.34-.56.48-1.57.82-3.03,1.02,1.48.11,2.49.35,3.04.75.56.39.83,1.06.83,1.98v5.06h2.35v1.64h-5.2v-6.65c0-.74-.23-1.25-.68-1.52-.45-.28-1.31-.42-2.56-.42h-3.43v6.95h2.35v1.64h-7.73ZM136.31,57.02h3.09c1.2,0,2.08-.18,2.64-.54.56-.36.84-.92.84-1.69v-1.72c0-.78-.25-1.32-.74-1.62-.5-.3-1.42-.46-2.77-.46h-3.06v6.02ZM126.74,66.27c-.61.49-1.28.85-1.98,1.08-.7.23-1.5.35-2.38.35-1.99,0-3.53-.49-4.62-1.47-1.08-.98-1.63-2.36-1.63-4.16v-8c0-1.58.55-2.84,1.65-3.76,1.1-.92,2.59-1.39,4.46-1.39.84,0,1.61.14,2.33.42.72.28,1.33.67,1.82,1.18v-1.26h2.14v4.99h-2.33l-.04-.39c-.16-1.1-.51-1.89-1.05-2.38-.53-.49-1.31-.73-2.31-.73-1.25,0-2.16.29-2.75.86-.58.57-.87,1.47-.87,2.69v8.01c0,1.22.29,2.12.87,2.68.57.56,1.49.84,2.75.84,1.18,0,2.07-.3,2.69-.91.61-.61.93-1.49.93-2.67v-1.54h-2.47v-1.91h5.18v8.51h-1.41l-.98-1.06Z"/>
  </g>
  <path d="M341.51,108.92c-1.37.29-2.62.96-3.74,2-1.12,1.04-2.11,2.27-2.96,3.68-.85,1.41-1.55,2.92-2.09,4.53-.54,1.6-.94,3.11-1.19,4.52,2.54-1.21,4.74-2.84,6.62-4.9,1.87-2.06,3.25-4.52,4.12-7.4v.06c.12-.33.2-.67.22-1,.02-.33.01-.62-.03-.87-.12-.58-.44-.79-.94-.62M346.37,114.04c-1.29,3.74-3.21,6.87-5.77,9.36-2.56,2.5-5.59,4.35-9.08,5.55.25,1.12.68,2.18,1.28,3.18.6,1,1.4,1.6,2.4,1.81l-.12-.06c.87.21,1.82.15,2.84-.19,1.02-.33,2.07-.93,3.15-1.78,1.08-.85,2.14-1.97,3.18-3.34,1.04-1.37,2.02-3,2.93-4.87.46-1,.88-2.03,1.28-3.09.4-1.06.76-2.07,1.09-3.03.29-.54.72-.83,1.28-.87.56-.04,1.08.09,1.56.41.48.31.85.75,1.12,1.31.27.56.28,1.2.03,1.9l-.81,2.25c-.75,1.87-1.69,3.94-2.81,6.21-1.12,2.27-2.56,4.46-4.31,6.58-1.04,1.17-2.12,2.07-3.25,2.72-1.12.64-2.21,1.12-3.25,1.44-1.04.31-1.99.5-2.84.56-.85.06-1.53.09-2.03.09-3.25,0-5.9-.94-7.96-2.81-2.06-1.87-3.4-4.43-4.03-7.68-.54-2.83-.53-5.6.03-8.3.56-2.7,1.63-5.64,3.21-8.8.54-1.04,1.31-2.15,2.31-3.34,1-1.19,2.15-2.28,3.46-3.28,1.31-1,2.74-1.81,4.28-2.43,1.54-.62,3.14-.92,4.81-.87,1.75.04,3.24.61,4.46,1.72,1.23,1.1,1.99,2.59,2.28,4.46.12.83.14,1.67.03,2.53-.1.85-.36,1.76-.78,2.71v-.06ZM307.24,105.68c-.71.25-1.33.25-1.87,0-.54-.25-.95-.61-1.22-1.09-.27-.48-.37-1.01-.31-1.59.06-.58.38-1.1.97-1.56,2.62-2.08,5.37-3.85,8.24-5.31.71-2.7,1.27-5.2,1.69-7.49.42-2.29.71-4.43.87-6.43.54-.33,1.32-.32,2.34.03,1.02.35,2.01.91,2.96,1.65.96.75,1.79,1.61,2.5,2.59.71.98,1.02,1.92.94,2.84-.08.33-.18.77-.28,1.31-.1.54-.26,1.17-.47,1.87,2.54-.5,5.18-.75,7.93-.75.42,0,.97.01,1.65.03.69.02,1.24.05,1.65.09.29.62.45,1.3.47,2.03.02.73-.07,1.41-.28,2.06-.21.64-.5,1.2-.87,1.65-.37.46-.81.69-1.31.69-.46-.04-.92-.07-1.37-.09-.46-.02-.92-.03-1.37-.03-1.46,0-2.87.08-4.24.25-1.37.17-2.77.42-4.18.75l-1.68,5.68-.25.81c-.25.79-.58,1.87-1,3.25-.42,1.37-.86,2.9-1.34,4.59-.48,1.69-.96,3.45-1.44,5.31-.48,1.85-.89,3.64-1.25,5.37-.35,1.73-.61,3.32-.78,4.77-.17,1.46-.17,2.62,0,3.5v.5h.44c1.08-.42,2.05-1.09,2.9-2.03.85-.94,1.62-2,2.31-3.18.69-1.19,1.31-2.45,1.87-3.81.56-1.35,1.09-2.67,1.59-3.96h-.06c.12-.37.28-.74.47-1.09.19-.35.34-.7.47-1.03.08-.25.35-.31.81-.19.46.12.94.33,1.44.62.5.29.93.63,1.28,1.03.35.4.49.74.41,1.03l-1.12,2.81c-.96,2.37-2.03,4.77-3.21,7.21-1.19,2.43-2.57,4.57-4.15,6.4-.29.33-.67.7-1.12,1.09-.46.4-.98.76-1.56,1.09-.58.33-1.23.61-1.93.84-.71.23-1.48.34-2.31.34-1.87-.08-3.34-.85-4.4-2.31-1.06-1.46-1.76-3.25-2.09-5.37-.08-.46-.14-.95-.16-1.47-.02-.52-.03-.99-.03-1.4-.04-4.29.44-8.51,1.44-12.67,1-4.16,2.1-8.22,3.31-12.17l.44-1.25c-.58.33-1.17.68-1.75,1.03-.58.35-1.17.72-1.75,1.09l-.19.06ZM293.63,119.16c-.08-.33-.14-.68-.16-1.03-.02-.35-.05-.7-.09-1.03l-1.44,3.5-.06.06c.21.33.48.91.81,1.72.33.81.63,1.66.91,2.56.27.89.44,1.75.5,2.56.06.81-.05,1.4-.34,1.78-.46-.67-1-1.05-1.62-1.15-.62-.1-1.2-.01-1.72.28-.52.29-.96.7-1.31,1.22-.35.52-.49,1.05-.41,1.59.04.21.14.47.28.78.15.31.3.61.47.91.46.67,1.04,1.15,1.75,1.47.71.31,1.35.51,1.93.59.67.08,1.21-.02,1.62-.31.42-.29.74-.69.97-1.19.23-.5.36-1.08.41-1.75.04-.67,0-1.37-.12-2.12-.12-.75-.29-1.52-.5-2.31-.21-.79-.42-1.6-.62-2.43-.21-.87-.43-1.79-.66-2.75-.23-.96-.43-1.93-.59-2.93ZM283.4,130.7c-.25-1.75-.14-3.45.34-5.12.48-1.66,1.26-3,2.34-3.99l1-2.25c.79-2,1.6-3.97,2.43-5.93.83-1.96,1.75-3.85,2.75-5.68l1-2c.54-1.12,1.17-2.33,1.87-3.62.71-1.29,1.83-2.79,3.37-4.49.71.33,1.57.8,2.59,1.4,1.02.6,1.93,1.27,2.75,2,.81.73,1.38,1.49,1.72,2.28.33.79.17,1.5-.5,2.12l.12-.06c-.58.71-.99,1.25-1.22,1.62-.23.37-.47.85-.72,1.44l-.56,1.25c-.58,1.46-.91,3-.97,4.62-.06,1.62.03,3.22.28,4.81.12.87.29,1.76.5,2.65.21.89.42,1.8.62,2.72l.75,3.74c.37,1.87.42,3.59.12,5.15-.29,1.56-.85,2.88-1.68,3.96-.83,1.08-1.9,1.9-3.21,2.47-1.31.56-2.78.8-4.4.72-1.71-.12-3.21-.48-4.52-1.06-1.31-.58-2.43-1.31-3.37-2.18-.94-.87-1.69-1.87-2.25-3-.56-1.12-.95-2.31-1.15-3.56ZM279.65,108.92c-1.37.29-2.62.96-3.74,2-1.12,1.04-2.11,2.27-2.96,3.68-.85,1.41-1.55,2.92-2.09,4.53-.54,1.6-.94,3.11-1.19,4.52,2.54-1.21,4.74-2.84,6.62-4.9,1.87-2.06,3.25-4.52,4.12-7.4v.06c.12-.33.2-.67.22-1,.02-.33.01-.62-.03-.87-.12-.58-.44-.79-.94-.62ZM284.52,114.04c-1.29,3.74-3.21,6.87-5.77,9.36-2.56,2.5-5.59,4.35-9.08,5.55.25,1.12.68,2.18,1.28,3.18.6,1,1.4,1.6,2.4,1.81l-.12-.06c.87.21,1.82.15,2.84-.19s2.07-.93,3.15-1.78c1.08-.85,2.14-1.97,3.18-3.34,1.04-1.37,2.02-3,2.93-4.87.46-1,.88-2.03,1.28-3.09.4-1.06.76-2.07,1.09-3.03.29-.54.72-.83,1.28-.87.56-.04,1.08.09,1.56.41.48.31.85.75,1.12,1.31.27.56.28,1.2.03,1.9l-.81,2.25c-.75,1.87-1.69,3.94-2.81,6.21-1.12,2.27-2.56,4.46-4.31,6.58-1.04,1.17-2.12,2.07-3.25,2.72-1.12.64-2.21,1.12-3.25,1.44-1.04.31-1.99.5-2.84.56-.85.06-1.53.09-2.03.09-3.25,0-5.9-.94-7.96-2.81-2.06-1.87-3.4-4.43-4.03-7.68-.54-2.83-.53-5.6.03-8.3.56-2.7,1.63-5.64,3.21-8.8.54-1.04,1.31-2.15,2.31-3.34,1-1.19,2.15-2.28,3.46-3.28,1.31-1,2.74-1.81,4.28-2.43,1.54-.62,3.14-.92,4.81-.87,1.75.04,3.24.61,4.46,1.72,1.23,1.1,1.99,2.59,2.28,4.46.12.83.14,1.67.03,2.53-.1.85-.36,1.76-.78,2.71v-.06ZM221.23,98.81c1.17,0,2.32.35,3.46,1.06,1.14.71,2.11,1.52,2.9,2.43.79.92,1.32,1.8,1.59,2.65.27.85.16,1.43-.34,1.72-1.96.54-3.76,1.47-5.4,2.78-1.64,1.31-3.07,2.88-4.28,4.71.42,1.75.99,3.41,1.72,4.99.73,1.58,1.7,3.08,2.9,4.49.25.5.11.91-.41,1.22-.52.31-1.17.52-1.93.62-.77.1-1.54.09-2.31-.03-.77-.12-1.3-.37-1.59-.75-.33-.5-.62-.99-.87-1.47-.25-.48-.48-.99-.69-1.53-.58,2.45-.71,4.81-.37,7.05.21,1.37.63,2.66,1.28,3.87.64,1.21,1.52,2.25,2.62,3.12,1.1.87,2.46,1.57,4.06,2.09,1.6.52,3.51.78,5.71.78,2.37,0,4.65-.74,6.83-2.22,2.18-1.48,4.2-3.45,6.05-5.93,1.85-2.48,3.51-5.32,4.96-8.52,1.46-3.2,2.64-6.54,3.56-10.02.92-3.47,1.52-6.94,1.81-10.39.29-3.45.21-6.66-.25-9.61-.29-1.79-.74-3.45-1.34-4.99-.6-1.54-1.4-2.86-2.4-3.96-1-1.1-2.19-1.98-3.59-2.62-1.39-.64-2.99-.99-4.77-1.03-2.41-.04-4.71.47-6.9,1.53-2.18,1.06-4.18,2.52-5.99,4.37-1.81,1.85-3.38,4.02-4.71,6.49-1.33,2.48-2.35,5.09-3.06,7.83l1.37-.69.37-.06ZM209.5,126.34c-.5-3.12-.5-6.29,0-9.52.5-3.22,1.41-6.19,2.75-8.89-.12-3,.17-5.94.87-8.83.71-2.89,1.71-5.64,3-8.24,1.29-2.6,2.84-5,4.65-7.21,1.81-2.21,3.74-4.13,5.8-5.77,2.06-1.64,4.21-2.96,6.46-3.96,2.25-1,4.47-1.58,6.68-1.75,3.12,0,5.94.54,8.46,1.62,2.52,1.08,4.7,2.57,6.55,4.46,1.85,1.89,3.37,4.14,4.56,6.74,1.19,2.6,2.03,5.4,2.53,8.39.58,3.58.71,7.36.37,11.36-.33,3.99-1.05,7.93-2.15,11.8-1.1,3.87-2.59,7.57-4.46,11.11s-4.09,6.63-6.65,9.27c-2.56,2.64-5.44,4.72-8.64,6.24-3.2,1.52-6.68,2.22-10.42,2.09-3.12-.12-5.87-.72-8.24-1.78-2.37-1.06-4.39-2.45-6.05-4.18-1.66-1.73-3-3.7-3.99-5.93-1-2.23-1.69-4.57-2.06-7.02ZM193.52,105.68c-.25.79-.58,1.87-1,3.25-.42,1.37-.86,2.9-1.34,4.59-.48,1.69-.96,3.45-1.44,5.31-.48,1.85-.89,3.64-1.25,5.37-.35,1.73-.61,3.32-.78,4.77-.17,1.46-.17,2.62,0,3.5v.5h.44c1.08-.42,2.05-1.09,2.9-2.03.85-.94,1.62-2,2.31-3.18.69-1.19,1.31-2.45,1.87-3.81.56-1.35,1.09-2.67,1.59-3.96h-.06c.12-.37.28-.74.47-1.09.19-.35.34-.7.47-1.03.08-.25.35-.31.81-.19.46.12.94.33,1.44.62.5.29.93.63,1.28,1.03.35.4.49.74.41,1.03l-1.12,2.81c-.96,2.37-2.03,4.77-3.21,7.21-1.19,2.43-2.57,4.57-4.15,6.4-.29.33-.67.7-1.12,1.09-.46.4-.98.76-1.56,1.09-.58.33-1.23.61-1.93.84-.71.23-1.48.34-2.31.34-1.87-.08-3.34-.85-4.4-2.31-1.06-1.46-1.76-3.25-2.09-5.37-.08-.46-.14-.95-.16-1.47-.02-.52-.03-.99-.03-1.4-.08-4.16.35-8.21,1.31-12.14.96-3.93,2-7.81,3.12-11.64l1.62-5.24c.42-1.58.83-3.19,1.25-4.84.42-1.64.8-3.26,1.15-4.84.35-1.58.65-3.11.87-4.59.23-1.48.41-2.84.53-4.09.54-.33,1.32-.32,2.34.03,1.02.35,2.01.91,2.96,1.65.96.75,1.79,1.61,2.5,2.59.71.98,1.02,1.92.94,2.84-.12.62-.34,1.52-.66,2.68-.31,1.17-.67,2.48-1.06,3.93-.4,1.46-.83,2.96-1.31,4.52-.48,1.56-.93,3.03-1.34,4.4l-.25.81ZM172.74,108.92c-1.37.29-2.62.96-3.74,2-1.12,1.04-2.11,2.27-2.96,3.68-.85,1.41-1.55,2.92-2.09,4.53-.54,1.6-.94,3.11-1.19,4.52,2.54-1.21,4.74-2.84,6.62-4.9,1.87-2.06,3.25-4.52,4.12-7.4v.06c.12-.33.2-.67.22-1,.02-.33.01-.62-.03-.87-.12-.58-.44-.79-.94-.62ZM177.61,114.04c-1.29,3.74-3.21,6.87-5.77,9.36-2.56,2.5-5.59,4.35-9.08,5.55.25,1.12.68,2.18,1.28,3.18.6,1,1.4,1.6,2.4,1.81l-.12-.06c.87.21,1.82.15,2.84-.19s2.07-.93,3.15-1.78c1.08-.85,2.14-1.97,3.18-3.34,1.04-1.37,2.02-3,2.93-4.87.46-1,.88-2.03,1.28-3.09.4-1.06.76-2.07,1.09-3.03.29-.54.72-.83,1.28-.87.56-.04,1.08.09,1.56.41.48.31.85.75,1.12,1.31.27.56.28,1.2.03,1.9l-.81,2.25c-.75,1.87-1.69,3.94-2.81,6.21-1.12,2.27-2.56,4.46-4.31,6.58-1.04,1.17-2.12,2.07-3.25,2.72-1.12.64-2.21,1.12-3.25,1.44-1.04.31-1.99.5-2.84.56-.85.06-1.53.09-2.03.09-3.25,0-5.9-.94-7.96-2.81-2.06-1.87-3.4-4.43-4.03-7.68-.54-2.83-.53-5.6.03-8.3.56-2.7,1.63-5.64,3.21-8.8.54-1.04,1.31-2.15,2.31-3.34,1-1.19,2.15-2.28,3.46-3.28,1.31-1,2.74-1.81,4.28-2.43,1.54-.62,3.14-.92,4.81-.87,1.75.04,3.24.61,4.46,1.72,1.23,1.1,1.99,2.59,2.28,4.46.12.83.14,1.67.03,2.53-.1.85-.36,1.76-.78,2.71v-.06ZM129.92,132.01c.54-.17,1.17-.63,1.87-1.4.71-.77,1.4-1.67,2.09-2.72.69-1.04,1.35-2.15,2-3.34.64-1.19,1.18-2.26,1.59-3.21l.37-2.18c.29-1.37.6-2.76.94-4.15.33-1.39.71-2.78,1.12-4.15-.21-.62-.54-1.16-1-1.62-.46-.46-1.04-.73-1.75-.81-1.54-.04-2.94.51-4.21,1.65-1.27,1.14-2.36,2.59-3.28,4.34-.92,1.75-1.66,3.62-2.25,5.62-.58,2-.96,3.81-1.12,5.43-.08.46-.11,1.03-.09,1.72.02.69.09,1.36.22,2.03.12.96.44,1.75.94,2.37.5.62,1.35.77,2.56.44ZM145.59,125.52c-.29,1.21-.49,2.41-.59,3.62-.1,1.21-.09,2.25.03,3.12.08.42.06.64-.06.69h.62c1.08-.42,2.06-1.1,2.93-2.06.87-.96,1.66-2.05,2.37-3.28.71-1.23,1.34-2.54,1.9-3.93.56-1.39,1.09-2.74,1.59-4.03.33-.62.56-1.19.69-1.69.12-.21.43-.26.91-.16.48.1.97.3,1.47.59.5.29.94.63,1.31,1.03.37.4.5.74.37,1.03l-1,2.5v.06c-.96,2.45-2.02,4.88-3.18,7.27-1.17,2.39-2.62,4.55-4.37,6.46-.29.33-.64.7-1.06,1.09-.42.4-.92.77-1.5,1.12-.58.35-1.23.64-1.93.87-.71.23-1.5.32-2.37.28-2.04-.17-3.66-.86-4.87-2.09-1.21-1.23-2.04-2.78-2.5-4.65-1.25,1.75-2.63,3.25-4.15,4.49-1.52,1.25-3.13,1.89-4.84,1.93-1.62-.17-3.03-.61-4.21-1.34-1.19-.73-2.17-1.59-2.96-2.59-.79-1-1.4-2.07-1.84-3.21-.44-1.14-.74-2.22-.91-3.21-.12-.92-.19-1.66-.19-2.25-.08-1.54.06-3.22.44-5.06.37-1.83.92-3.66,1.62-5.49.71-1.83,1.6-3.6,2.68-5.31,1.08-1.71,2.29-3.22,3.62-4.56,1.33-1.33,2.8-2.39,4.4-3.18,1.6-.79,3.32-1.19,5.15-1.19.54,0,1.08.04,1.62.12.54.08,1.12.21,1.75.37,1.21.42,2.27,1.1,3.18,2.06l.31-.81,1.19-3.62c.54-1.54,1.03-3.14,1.47-4.81.44-1.66.82-3.3,1.15-4.9.33-1.6.61-3.14.84-4.62.23-1.48.38-2.82.47-4.03.5-.33,1.26-.32,2.28.03,1.02.35,2.03.89,3.03,1.62,1,.73,1.84,1.59,2.53,2.59.69,1,.97,1.96.84,2.87-.08.5-.27,1.33-.56,2.5-.29,1.17-.64,2.48-1.06,3.93-.42,1.46-.87,2.99-1.37,4.59-.5,1.6-.98,3.11-1.44,4.53l-1.06,3.43v-.06c-.83,2.62-1.66,5.35-2.5,8.18-.83,2.83-1.54,5.87-2.12,9.11h-.12Z"/>
  <g>
    <path class="st4" d="M23.75,53.98s4-8,10.4-7.04c0,0-2.24,1.52-2.24,3.48,0,0,4.8-1.72,11.2-.92,6.4.8,8.96-1.92,8.96-1.92,0,0-1.76,20.01-28.33,6.4"/>
    <path class="st1" d="M111.42,95.24s-44.58-37.46-73.47,0c0,0-15.63,23.3,5.21,55.11,0,0,9.32-39.2,68.26-32.08,0,0-18.64-20.55-49.35-6.16,0,0,11.51-15.22,49.35-6.72,0,0-28.51-18.81-52.09-7.07,0,0,13.16-15.41,52.09-3.07"/>
    <path class="st1" d="M23.42,57.14s7.4,8.53,1.92,41.55c-5.48,33.02,13.71,51.66,13.71,51.66,0,0-27.69-48.24,9.59-67.85,0,0-3.84-20.16-25.22-25.37"/>
    <path class="st2" d="M20.83,57.32s-6.51-1.79-11.02,1.26c0,0,12.17,6.19,15.11,11.96,0,0-.95-7.14-4.09-13.22"/>
    <path class="st4" d="M24.93,73.5s2.13,18.82-5.26,18.82-2.35-15.25,5.26-18.82"/>
    <path class="st4" d="M23.75,53.98s4-8,10.4-7.04c0,0-2.24,1.52-2.24,3.48,0,0,4.8-1.72,11.2-.92,6.4.8,8.96-1.92,8.96-1.92,0,0-1.76,20.01-28.33,6.4"/>
    <path class="st3" d="M111.42,95.24s-44.58-37.46-73.47,0c0,0-15.63,23.3,5.21,55.11,0,0,9.32-39.2,68.26-32.08,0,0-18.64-20.55-49.35-6.16,0,0,11.51-15.22,49.35-6.72,0,0-28.51-18.81-52.09-7.07,0,0,13.16-15.41,52.09-3.07"/>
    <path class="st3" d="M23.42,57.14s7.4,8.53,1.92,41.55c-5.48,33.02,13.71,51.66,13.71,51.66,0,0-27.69-48.24,9.59-67.85,0,0-3.84-20.16-25.22-25.37"/>
    <path class="st2" d="M20.83,57.32s-6.51-1.79-11.02,1.26c0,0,12.17,6.19,15.11,11.96,0,0-.95-7.14-4.09-13.22"/>
    <path class="st4" d="M24.93,73.5s2.13,18.82-5.26,18.82-2.35-15.25,5.26-18.82"/>
  </g>
</svg>