<?xml version="1.0" encoding="UTF-8"?>
<svg id="Capa_1" xmlns="http://www.w3.org/2000/svg" version="1.1" viewBox="0 0 366.02 202.91">
  <!-- Generator: Adobe Illustrator 29.8.4, SVG Export Plug-In . SVG Version: 2.1.1 Build 6)  -->
  <defs>
    <style>
      .st0 {
        fill: #fff;
      }

      .st0, .st1, .st2, .st3 {
        fill-rule: evenodd;
      }

      .st1 {
        fill: #ffec4b;
      }

      .st4 {
        stroke: #fff;
      }

      .st4, .st5 {
        fill: none;
        stroke-miterlimit: 22.93;
        stroke-width: .35px;
      }

      .st3 {
        fill: #e30613;
      }

      .st6 {
        fill: #ef7d00;
      }

      .st5 {
        stroke: #ef7d00;
      }
    </style>
  </defs>
  <path class="st0" d="M190.44,100.53c-2.32,0-4.21,1.88-4.21,4.21s1.88,4.21,4.21,4.21,4.21-1.88,4.21-4.21-1.88-4.21-4.21-4.21Z"/>
  <path class="st4" d="M190.44,100.53c-2.32,0-4.21,1.88-4.21,4.21s1.88,4.21,4.21,4.21,4.21-1.88,4.21-4.21-1.88-4.21-4.21-4.21Z"/>
  <path class="st0" d="M178.01,100.53c-2.32,0-4.21,1.88-4.21,4.21s1.88,4.21,4.21,4.21,4.21-1.88,4.21-4.21-1.88-4.21-4.21-4.21Z"/>
  <path class="st4" d="M178.01,100.53c-2.32,0-4.21,1.88-4.21,4.21s1.88,4.21,4.21,4.21,4.21-1.88,4.21-4.21-1.88-4.21-4.21-4.21Z"/>
  <path class="st0" d="M166.49,100.53c-2.32,0-4.21,1.88-4.21,4.21s1.88,4.21,4.21,4.21,4.21-1.88,4.21-4.21-1.88-4.21-4.21-4.21Z"/>
  <path class="st4" d="M166.49,100.53c-2.32,0-4.21,1.88-4.21,4.21s1.88,4.21,4.21,4.21,4.21-1.88,4.21-4.21-1.88-4.21-4.21-4.21Z"/>
  <path class="st3" d="M154.08,14.69s3.47-6.93,9.01-6.1c0,0-1.94,1.32-1.94,3.01,0,0,4.16-1.49,9.7-.8,5.55.69,7.76-1.66,7.76-1.66,0,0-1.53,17.33-24.54,5.54"/>
  <path class="st0" d="M230.02,50.43s-38.62-32.44-63.64,0c0,0-13.53,20.19,4.51,47.73,0,0,8.07-33.96,59.13-27.78,0,0-16.15-17.8-42.74-5.34,0,0,9.97-13.18,42.74-5.82,0,0-24.7-16.29-45.12-6.13,0,0,11.4-13.35,45.12-2.66"/>
  <path class="st0" d="M153.8,17.42s6.41,7.38,1.66,35.99c-4.75,28.6,11.87,44.75,11.87,44.75,0,0-23.98-41.78,8.31-58.76,0,0-3.32-17.46-21.85-21.97"/>
  <path class="st1" d="M151.56,17.58s-5.64-1.55-9.54,1.09c0,0,10.54,5.36,13.09,10.36,0,0-.82-6.18-3.55-11.45"/>
  <path class="st3" d="M155.1,31.6s1.84,16.31-4.56,16.31-2.03-13.21,4.56-16.31"/>
  <path class="st6" d="M97.16,98.2v-1.66h1.86l5.25-14.92h-2.31v-1.69h9.1v1.69h-2.38l5.3,14.92h1.64v1.66h-7.08v-1.66h2.45l-1.36-4h-6.59l-1.42,4h2.42v1.66h-6.9ZM103.67,90.82h5.36l-2.62-8.26-2.74,8.26ZM88.27,101.05v-1.91h.6c1.1,0,1.85-.16,2.25-.47.4-.32.6-.94.6-1.86v-15.2h-2.42v-1.69h7.82v1.69h-2.38v15c0,1.49-.46,2.59-1.38,3.33-.92.73-2.32,1.1-4.18,1.1h-.91ZM69.27,98.2v-1.66h2.42v-14.92h-2.42v-1.69h5.69l7.33,13.75v-12.06h-2.38v-1.69h7.33v1.69h-2.38v16.77h-2.63l-8-14.91v13.06h2.38v1.66h-7.33ZM49.6,98.2v-1.66h1.86l5.25-14.92h-2.31v-1.69h9.1v1.69h-2.38l5.3,14.92h1.64v1.66h-7.08v-1.66h2.45l-1.36-4h-6.59l-1.42,4h2.42v1.66h-6.9ZM56.1,90.82h5.36l-2.62-8.26-2.74,8.26ZM31.71,98.2v-1.66h2.42v-14.92h-2.42v-1.69h8.31c2.53,0,4.28.3,5.28.92,1,.61,1.49,1.67,1.49,3.17v1.23c0,1.09-.28,1.88-.85,2.37-.56.49-1.59.83-3.07,1.03,1.49.11,2.52.36,3.08.76.56.4.84,1.07.84,2.01v5.12h2.38v1.66h-5.26v-6.73c0-.75-.23-1.27-.69-1.54-.46-.28-1.32-.42-2.6-.42h-3.47v7.03h2.38v1.66h-7.82ZM37.15,87.76h3.13c1.21,0,2.1-.18,2.67-.55.56-.36.85-.93.85-1.71v-1.74c0-.79-.25-1.33-.75-1.64-.5-.31-1.44-.46-2.8-.46h-3.09v6.09ZM27.46,97.13c-.62.5-1.29.86-2,1.1-.71.24-1.52.35-2.41.35-2.02,0-3.57-.5-4.68-1.49-1.1-.99-1.65-2.39-1.65-4.21v-8.1c0-1.6.56-2.87,1.67-3.81,1.11-.93,2.62-1.4,4.52-1.4.85,0,1.63.14,2.36.42.73.28,1.35.68,1.84,1.19v-1.28h2.17v5.06h-2.36l-.04-.39c-.16-1.11-.52-1.91-1.06-2.41-.54-.5-1.32-.74-2.34-.74-1.26,0-2.19.29-2.78.87-.59.58-.88,1.49-.88,2.72v8.11c0,1.24.29,2.14.88,2.71.58.57,1.51.85,2.79.85,1.19,0,2.1-.3,2.73-.92.62-.61.94-1.51.94-2.7v-1.56h-2.5v-1.93h5.24v8.62h-1.43l-1-1.07Z"/>
  <path class="st5" d="M97.16,98.2v-1.66h1.86l5.25-14.92h-2.31v-1.69h9.1v1.69h-2.38l5.3,14.92h1.64v1.66h-7.08v-1.66h2.45l-1.36-4h-6.59l-1.42,4h2.42v1.66h-6.9ZM103.67,90.82h5.36l-2.62-8.26-2.74,8.26ZM88.27,101.05v-1.91h.6c1.1,0,1.85-.16,2.25-.47.4-.32.6-.94.6-1.86v-15.2h-2.42v-1.69h7.82v1.69h-2.38v15c0,1.49-.46,2.59-1.38,3.33-.92.73-2.32,1.1-4.18,1.1h-.91ZM69.27,98.2v-1.66h2.42v-14.92h-2.42v-1.69h5.69l7.33,13.75v-12.06h-2.38v-1.69h7.33v1.69h-2.38v16.77h-2.63l-8-14.91v13.06h2.38v1.66h-7.33ZM49.6,98.2v-1.66h1.86l5.25-14.92h-2.31v-1.69h9.1v1.69h-2.38l5.3,14.92h1.64v1.66h-7.08v-1.66h2.45l-1.36-4h-6.59l-1.42,4h2.42v1.66h-6.9ZM56.1,90.82h5.36l-2.62-8.26-2.74,8.26ZM31.71,98.2v-1.66h2.42v-14.92h-2.42v-1.69h8.31c2.53,0,4.28.3,5.28.92,1,.61,1.49,1.67,1.49,3.17v1.23c0,1.09-.28,1.88-.85,2.37-.56.49-1.59.83-3.07,1.03,1.49.11,2.52.36,3.08.76.56.4.84,1.07.84,2.01v5.12h2.38v1.66h-5.26v-6.73c0-.75-.23-1.27-.69-1.54-.46-.28-1.32-.42-2.6-.42h-3.47v7.03h2.38v1.66h-7.82ZM37.15,87.76h3.13c1.21,0,2.1-.18,2.67-.55.56-.36.85-.93.85-1.71v-1.74c0-.79-.25-1.33-.75-1.64-.5-.31-1.44-.46-2.8-.46h-3.09v6.09ZM27.46,97.13c-.62.5-1.29.86-2,1.1-.71.24-1.52.35-2.41.35-2.02,0-3.57-.5-4.68-1.49-1.1-.99-1.65-2.39-1.65-4.21v-8.1c0-1.6.56-2.87,1.67-3.81,1.11-.93,2.62-1.4,4.52-1.4.85,0,1.63.14,2.36.42.73.28,1.35.68,1.84,1.19v-1.28h2.17v5.06h-2.36l-.04-.39c-.16-1.11-.52-1.91-1.06-2.41-.54-.5-1.32-.74-2.34-.74-1.26,0-2.19.29-2.78.87-.59.58-.88,1.49-.88,2.72v8.11c0,1.24.29,2.14.88,2.71.58.57,1.51.85,2.79.85,1.19,0,2.1-.3,2.73-.92.62-.61.94-1.51.94-2.7v-1.56h-2.5v-1.93h5.24v8.62h-1.43l-1-1.07Z"/>
  <path d="M287.13,148.28c-1.39.29-2.65.97-3.79,2.02-1.14,1.05-2.14,2.3-3,3.73-.86,1.43-1.57,2.96-2.12,4.58-.55,1.62-.95,3.15-1.2,4.58,2.57-1.22,4.8-2.87,6.7-4.96,1.9-2.08,3.29-4.58,4.17-7.49v.06c.13-.34.2-.67.22-1.01.02-.34.01-.63-.03-.88-.13-.59-.44-.8-.95-.63M292.06,153.47c-1.31,3.79-3.25,6.95-5.84,9.48-2.59,2.53-5.65,4.4-9.19,5.62.25,1.14.68,2.21,1.3,3.22.61,1.01,1.42,1.62,2.43,1.83l-.13-.06c.88.21,1.84.15,2.87-.19,1.03-.34,2.1-.94,3.19-1.8,1.1-.86,2.17-1.99,3.22-3.38,1.05-1.39,2.04-3.03,2.97-4.93.46-1.01.9-2.05,1.3-3.13.4-1.07.77-2.1,1.11-3.06.29-.55.73-.84,1.3-.88.57-.04,1.1.09,1.58.41.48.32.86.76,1.14,1.33.27.57.28,1.21.03,1.93l-.82,2.27c-.76,1.9-1.71,3.99-2.84,6.29-1.14,2.3-2.59,4.52-4.36,6.67-1.05,1.18-2.15,2.1-3.29,2.75-1.14.65-2.23,1.14-3.29,1.45-1.05.32-2.01.51-2.87.57-.86.06-1.55.09-2.05.09-3.29,0-5.97-.95-8.06-2.84-2.08-1.9-3.44-4.49-4.08-7.77-.55-2.86-.54-5.67.03-8.4.57-2.74,1.65-5.71,3.25-8.91.55-1.05,1.33-2.18,2.34-3.38,1.01-1.2,2.18-2.31,3.51-3.32,1.33-1.01,2.77-1.83,4.33-2.46,1.56-.63,3.18-.93,4.86-.88,1.77.04,3.28.62,4.52,1.74,1.24,1.12,2.01,2.62,2.31,4.52.13.84.14,1.7.03,2.56-.11.86-.37,1.78-.79,2.75v-.06ZM252.45,145c-.72.25-1.35.25-1.9,0-.55-.25-.96-.62-1.23-1.11-.27-.48-.38-1.02-.32-1.61.06-.59.39-1.12.98-1.58,2.65-2.11,5.43-3.9,8.34-5.37.72-2.74,1.28-5.27,1.71-7.58.42-2.32.72-4.49.88-6.51.55-.34,1.34-.33,2.37.03,1.03.36,2.03.92,3,1.67.97.76,1.81,1.63,2.53,2.62.72.99,1.03,1.95.95,2.87-.08.34-.18.78-.28,1.33-.11.55-.26,1.18-.47,1.9,2.57-.51,5.24-.76,8.02-.76.42,0,.98.01,1.67.03.69.02,1.25.05,1.67.09.29.63.45,1.32.47,2.05.02.74-.07,1.43-.28,2.09-.21.65-.51,1.21-.88,1.67-.38.46-.82.69-1.33.69-.46-.04-.93-.07-1.39-.09-.46-.02-.93-.03-1.39-.03-1.47,0-2.91.08-4.3.25-1.39.17-2.8.42-4.23.76l-1.71,5.75-.25.82c-.25.8-.59,1.9-1.01,3.29-.42,1.39-.87,2.94-1.36,4.64-.48,1.71-.97,3.5-1.45,5.37-.48,1.87-.91,3.69-1.26,5.43-.36,1.75-.62,3.36-.79,4.83-.17,1.47-.17,2.65,0,3.54v.51h.44c1.1-.42,2.07-1.11,2.94-2.05.86-.95,1.64-2.02,2.34-3.22.7-1.2,1.33-2.49,1.9-3.85.57-1.37,1.11-2.71,1.61-4.01h-.06c.13-.38.28-.75.47-1.11.19-.36.35-.71.47-1.04.08-.25.36-.32.82-.19.46.13.95.34,1.45.63.51.29.94.64,1.3,1.04.36.4.49.75.41,1.04l-1.14,2.84c-.97,2.4-2.05,4.83-3.25,7.3-1.2,2.46-2.6,4.62-4.2,6.48-.29.34-.67.71-1.14,1.11-.46.4-.99.77-1.58,1.11-.59.34-1.24.62-1.96.85-.72.23-1.5.35-2.34.35-1.9-.08-3.38-.86-4.45-2.34-1.07-1.47-1.78-3.29-2.12-5.43-.08-.46-.14-.96-.16-1.48-.02-.53-.03-1-.03-1.42-.04-4.34.44-8.61,1.45-12.83,1.01-4.21,2.13-8.32,3.35-12.32l.44-1.26c-.59.34-1.18.68-1.77,1.04-.59.36-1.18.73-1.77,1.11l-.19.06ZM238.67,158.65c-.08-.34-.14-.68-.16-1.04-.02-.36-.05-.71-.09-1.04l-1.45,3.54-.06.06c.21.34.48.92.82,1.74.34.82.64,1.68.92,2.59.27.91.44,1.77.51,2.59.06.82-.05,1.42-.35,1.8-.46-.67-1.01-1.06-1.64-1.17-.63-.11-1.21-.01-1.74.28-.53.29-.97.71-1.33,1.23-.36.53-.49,1.06-.41,1.61.04.21.14.47.28.79.15.32.31.62.47.92.46.67,1.05,1.17,1.77,1.48.72.32,1.37.52,1.96.6.67.08,1.22-.02,1.64-.32.42-.29.75-.69.98-1.2.23-.51.37-1.1.41-1.77.04-.67,0-1.39-.13-2.15-.13-.76-.29-1.54-.51-2.34-.21-.8-.42-1.62-.63-2.46-.21-.88-.43-1.81-.66-2.78-.23-.97-.43-1.96-.6-2.97ZM228.31,170.34c-.25-1.77-.14-3.5.35-5.18.48-1.68,1.27-3.03,2.37-4.04l1.01-2.27c.8-2.02,1.62-4.02,2.46-6,.84-1.98,1.77-3.9,2.78-5.75l1.01-2.02c.55-1.14,1.18-2.36,1.9-3.66.72-1.31,1.85-2.82,3.41-4.55.72.34,1.59.81,2.62,1.42,1.03.61,1.96,1.28,2.78,2.02.82.74,1.4,1.51,1.74,2.31.34.8.17,1.52-.51,2.15l.13-.06c-.59.72-1,1.26-1.23,1.64-.23.38-.47.86-.73,1.45l-.57,1.26c-.59,1.47-.92,3.03-.98,4.68-.06,1.64.03,3.26.28,4.87.13.88.29,1.78.51,2.69.21.91.42,1.82.63,2.75l.76,3.79c.38,1.9.42,3.63.13,5.21-.29,1.58-.86,2.92-1.71,4.01-.84,1.1-1.93,1.93-3.25,2.5-1.33.57-2.81.81-4.45.73-1.73-.13-3.25-.48-4.58-1.07-1.33-.59-2.46-1.33-3.41-2.21-.95-.88-1.71-1.9-2.27-3.03-.57-1.14-.96-2.34-1.17-3.6ZM224.52,148.28c-1.39.29-2.65.97-3.79,2.02-1.14,1.05-2.14,2.3-3,3.73-.86,1.43-1.57,2.96-2.12,4.58-.55,1.62-.95,3.15-1.2,4.58,2.57-1.22,4.8-2.87,6.7-4.96,1.9-2.08,3.29-4.58,4.17-7.49v.06c.13-.34.2-.67.22-1.01.02-.34.01-.63-.03-.88-.13-.59-.44-.8-.95-.63ZM229.45,153.47c-1.31,3.79-3.25,6.95-5.84,9.48-2.59,2.53-5.65,4.4-9.19,5.62.25,1.14.68,2.21,1.3,3.22.61,1.01,1.42,1.62,2.43,1.83l-.13-.06c.88.21,1.84.15,2.87-.19s2.1-.94,3.19-1.8c1.1-.86,2.17-1.99,3.22-3.38,1.05-1.39,2.04-3.03,2.97-4.93.46-1.01.9-2.05,1.3-3.13.4-1.07.77-2.1,1.11-3.06.29-.55.73-.84,1.3-.88.57-.04,1.1.09,1.58.41.48.32.86.76,1.14,1.33.27.57.28,1.21.03,1.93l-.82,2.27c-.76,1.9-1.71,3.99-2.84,6.29-1.14,2.3-2.59,4.52-4.36,6.67-1.05,1.18-2.15,2.1-3.29,2.75-1.14.65-2.23,1.14-3.29,1.45-1.05.32-2.01.51-2.87.57-.86.06-1.55.09-2.05.09-3.29,0-5.97-.95-8.06-2.84-2.09-1.9-3.44-4.49-4.08-7.77-.55-2.86-.54-5.67.03-8.4.57-2.74,1.65-5.71,3.25-8.91.55-1.05,1.33-2.18,2.34-3.38,1.01-1.2,2.18-2.31,3.51-3.32,1.33-1.01,2.77-1.83,4.33-2.46,1.56-.63,3.18-.93,4.86-.88,1.77.04,3.28.62,4.52,1.74,1.24,1.12,2.01,2.62,2.31,4.52.13.84.14,1.7.03,2.56-.11.86-.37,1.78-.79,2.75v-.06ZM165.38,138.05c1.18,0,2.35.36,3.51,1.07,1.16.72,2.14,1.54,2.94,2.46.8.93,1.34,1.82,1.61,2.69.27.86.16,1.44-.35,1.74-1.98.55-3.8,1.48-5.47,2.81-1.66,1.33-3.11,2.92-4.33,4.77.42,1.77,1,3.45,1.74,5.05.74,1.6,1.72,3.12,2.94,4.55.25.51.12.92-.41,1.23-.53.32-1.18.53-1.96.63-.78.11-1.56.09-2.34-.03-.78-.13-1.32-.38-1.61-.76-.34-.51-.63-1-.88-1.48-.25-.48-.48-1-.69-1.55-.59,2.49-.72,4.87-.38,7.14.21,1.39.64,2.7,1.3,3.92.65,1.22,1.54,2.27,2.65,3.16,1.12.88,2.49,1.59,4.11,2.12,1.62.53,3.55.79,5.78.79,2.4,0,4.71-.75,6.92-2.24,2.21-1.5,4.25-3.5,6.13-6,1.87-2.51,3.55-5.38,5.02-8.62,1.47-3.24,2.67-6.62,3.6-10.14.93-3.52,1.54-7.02,1.83-10.52.29-3.5.21-6.74-.25-9.73-.29-1.81-.75-3.5-1.36-5.05-.61-1.56-1.42-2.9-2.43-4.01-1.01-1.12-2.22-2-3.63-2.65-1.41-.65-3.02-1-4.83-1.04-2.44-.04-4.77.47-6.98,1.55-2.21,1.07-4.23,2.55-6.07,4.42-1.83,1.87-3.42,4.06-4.77,6.57-1.35,2.51-2.38,5.15-3.1,7.93l1.39-.7.38-.06ZM153.5,165.91c-.51-3.16-.51-6.37,0-9.64.51-3.26,1.43-6.27,2.78-9-.13-3.03.17-6.01.88-8.94.72-2.93,1.73-5.71,3.03-8.34,1.31-2.63,2.87-5.07,4.71-7.3,1.83-2.23,3.79-4.18,5.88-5.84,2.09-1.66,4.26-3,6.54-4.01,2.27-1.01,4.53-1.6,6.76-1.77,3.16,0,6.01.55,8.56,1.64,2.55,1.1,4.76,2.6,6.63,4.52,1.87,1.92,3.41,4.19,4.61,6.82,1.2,2.63,2.05,5.47,2.56,8.5.59,3.62.72,7.46.38,11.5-.34,4.04-1.06,8.02-2.18,11.94-1.12,3.92-2.62,7.67-4.52,11.25s-4.14,6.71-6.73,9.38c-2.59,2.67-5.51,4.78-8.75,6.32-3.24,1.54-6.76,2.24-10.55,2.12-3.16-.13-5.94-.73-8.34-1.8-2.4-1.07-4.44-2.49-6.13-4.23-1.68-1.75-3.03-3.75-4.04-6-1.01-2.25-1.71-4.62-2.09-7.11ZM137.33,145c-.25.8-.59,1.9-1.01,3.29-.42,1.39-.87,2.94-1.36,4.64-.48,1.71-.97,3.5-1.45,5.37-.48,1.87-.91,3.69-1.26,5.43-.36,1.75-.62,3.36-.79,4.83-.17,1.47-.17,2.65,0,3.54v.51h.44c1.1-.42,2.07-1.11,2.94-2.05.86-.95,1.64-2.02,2.34-3.22.7-1.2,1.33-2.49,1.9-3.85.57-1.37,1.11-2.71,1.61-4.01h-.06c.13-.38.28-.75.47-1.11.19-.36.35-.71.47-1.04.08-.25.36-.32.82-.19.46.13.95.34,1.45.63.51.29.94.64,1.3,1.04.36.4.49.75.41,1.04l-1.14,2.84c-.97,2.4-2.05,4.83-3.25,7.3-1.2,2.46-2.6,4.62-4.2,6.48-.29.34-.67.71-1.14,1.11-.46.4-.99.77-1.58,1.11-.59.34-1.24.62-1.96.85-.72.23-1.5.35-2.34.35-1.9-.08-3.38-.86-4.45-2.34-1.07-1.47-1.78-3.29-2.12-5.43-.08-.46-.14-.96-.16-1.48-.02-.53-.03-1-.03-1.42-.08-4.21.36-8.31,1.33-12.29.97-3.98,2.02-7.91,3.16-11.78l1.64-5.31c.42-1.6.84-3.23,1.26-4.9.42-1.66.81-3.3,1.17-4.9.36-1.6.65-3.15.88-4.64.23-1.5.41-2.87.54-4.14.55-.34,1.34-.33,2.37.03,1.03.36,2.03.92,3,1.67.97.76,1.81,1.63,2.53,2.62.72.99,1.03,1.95.95,2.87-.13.63-.35,1.54-.66,2.72-.32,1.18-.67,2.51-1.07,3.98-.4,1.47-.84,3-1.33,4.58-.48,1.58-.94,3.06-1.36,4.45l-.25.82ZM116.29,148.28c-1.39.29-2.65.97-3.79,2.02-1.14,1.05-2.14,2.3-3,3.73-.86,1.43-1.57,2.96-2.12,4.58-.55,1.62-.95,3.15-1.2,4.58,2.57-1.22,4.8-2.87,6.7-4.96,1.9-2.08,3.29-4.58,4.17-7.49v.06c.13-.34.2-.67.22-1.01.02-.34.01-.63-.03-.88-.13-.59-.44-.8-.95-.63ZM121.22,153.47c-1.31,3.79-3.25,6.95-5.84,9.48-2.59,2.53-5.65,4.4-9.19,5.62.25,1.14.68,2.21,1.3,3.22.61,1.01,1.42,1.62,2.43,1.83l-.13-.06c.88.21,1.84.15,2.87-.19s2.1-.94,3.19-1.8c1.1-.86,2.17-1.99,3.22-3.38,1.05-1.39,2.04-3.03,2.97-4.93.46-1.01.9-2.05,1.3-3.13.4-1.07.77-2.1,1.11-3.06.29-.55.73-.84,1.3-.88.57-.04,1.1.09,1.58.41.48.32.86.76,1.14,1.33.27.57.28,1.21.03,1.93l-.82,2.27c-.76,1.9-1.71,3.99-2.84,6.29-1.14,2.3-2.59,4.52-4.36,6.67-1.05,1.18-2.15,2.1-3.29,2.75-1.14.65-2.23,1.14-3.29,1.45-1.05.32-2.01.51-2.87.57-.86.06-1.55.09-2.05.09-3.29,0-5.97-.95-8.06-2.84-2.08-1.9-3.44-4.49-4.08-7.77-.55-2.86-.54-5.67.03-8.4.57-2.74,1.65-5.71,3.25-8.91.55-1.05,1.33-2.18,2.34-3.38,1.01-1.2,2.18-2.31,3.51-3.32,1.33-1.01,2.77-1.83,4.33-2.46,1.56-.63,3.18-.93,4.86-.88,1.77.04,3.28.62,4.52,1.74,1.24,1.12,2.01,2.62,2.31,4.52.13.84.14,1.7.03,2.56-.11.86-.37,1.78-.79,2.75v-.06ZM72.94,171.66c.55-.17,1.18-.64,1.9-1.42.72-.78,1.42-1.7,2.12-2.75.7-1.05,1.37-2.18,2.02-3.38.65-1.2,1.19-2.29,1.61-3.25l.38-2.21c.29-1.39.61-2.79.95-4.2.34-1.41.72-2.81,1.14-4.2-.21-.63-.55-1.18-1.01-1.64-.46-.46-1.05-.74-1.77-.82-1.56-.04-2.98.52-4.26,1.67-1.28,1.16-2.39,2.62-3.32,4.39-.93,1.77-1.68,3.66-2.27,5.69-.59,2.02-.97,3.85-1.14,5.5-.08.46-.12,1.04-.09,1.74.02.7.09,1.38.22,2.05.13.97.44,1.77.95,2.4.51.63,1.37.78,2.59.44ZM88.8,165.09c-.29,1.22-.49,2.44-.6,3.66-.11,1.22-.09,2.27.03,3.16.08.42.06.65-.06.69h.63c1.1-.42,2.09-1.12,2.97-2.08.88-.97,1.68-2.07,2.4-3.32.72-1.24,1.36-2.57,1.93-3.98.57-1.41,1.11-2.77,1.61-4.08.34-.63.57-1.2.69-1.71.13-.21.43-.26.92-.16.48.11.98.31,1.48.6.51.29.95.64,1.33,1.04.38.4.51.75.38,1.04l-1.01,2.53v.06c-.97,2.49-2.04,4.94-3.22,7.36-1.18,2.42-2.65,4.6-4.42,6.54-.29.34-.65.71-1.07,1.11-.42.4-.93.78-1.52,1.14-.59.36-1.24.65-1.96.88-.72.23-1.52.33-2.4.28-2.06-.17-3.71-.87-4.93-2.12-1.22-1.24-2.06-2.81-2.53-4.71-1.26,1.77-2.66,3.29-4.2,4.55-1.54,1.26-3.17,1.92-4.9,1.96-1.64-.17-3.06-.62-4.26-1.36-1.2-.74-2.2-1.61-3-2.62-.8-1.01-1.42-2.1-1.86-3.25-.44-1.16-.75-2.24-.92-3.25-.13-.93-.19-1.68-.19-2.27-.08-1.56.06-3.26.44-5.12.38-1.85.93-3.71,1.64-5.56.72-1.85,1.62-3.64,2.72-5.37,1.1-1.73,2.32-3.26,3.66-4.61,1.35-1.35,2.83-2.42,4.45-3.22,1.62-.8,3.36-1.2,5.21-1.2.55,0,1.1.04,1.64.13.55.08,1.14.21,1.77.38,1.22.42,2.3,1.12,3.22,2.09l.32-.82,1.2-3.66c.55-1.56,1.04-3.18,1.48-4.87.44-1.68.83-3.34,1.17-4.96.34-1.62.62-3.18.85-4.68.23-1.5.39-2.85.47-4.08.51-.34,1.27-.33,2.31.03,1.03.36,2.05.91,3.06,1.64,1.01.74,1.86,1.61,2.56,2.62.69,1.01.98,1.98.85,2.91-.08.51-.27,1.35-.57,2.53-.29,1.18-.65,2.51-1.07,3.98-.42,1.47-.88,3.02-1.39,4.64-.51,1.62-.99,3.15-1.45,4.58l-1.07,3.48v-.06c-.84,2.65-1.68,5.41-2.53,8.28-.84,2.86-1.56,5.94-2.15,9.22h-.13Z"/>
  <rect x="15.63" y="104.06" width="140.32" height="1.85"/>
  <rect class="st4" x="15.63" y="104.06" width="140.32" height="1.85"/>
  <rect x="200.72" y="104.06" width="140.32" height="1.85"/>
  <rect class="st4" x="200.72" y="104.06" width="140.32" height="1.85"/>
  <path class="st2" d="M190.44,100.53c-2.32,0-4.21,1.88-4.21,4.21s1.88,4.21,4.21,4.21,4.21-1.88,4.21-4.21-1.88-4.21-4.21-4.21Z"/>
  <path class="st4" d="M190.44,100.53c-2.32,0-4.21,1.88-4.21,4.21s1.88,4.21,4.21,4.21,4.21-1.88,4.21-4.21-1.88-4.21-4.21-4.21Z"/>
  <path class="st2" d="M178.01,100.53c-2.32,0-4.21,1.88-4.21,4.21s1.88,4.21,4.21,4.21,4.21-1.88,4.21-4.21-1.88-4.21-4.21-4.21Z"/>
  <path class="st4" d="M178.01,100.53c-2.32,0-4.21,1.88-4.21,4.21s1.88,4.21,4.21,4.21,4.21-1.88,4.21-4.21-1.88-4.21-4.21-4.21Z"/>
  <path class="st2" d="M166.49,100.53c-2.32,0-4.21,1.88-4.21,4.21s1.88,4.21,4.21,4.21,4.21-1.88,4.21-4.21-1.88-4.21-4.21-4.21Z"/>
  <path class="st4" d="M166.49,100.53c-2.32,0-4.21,1.88-4.21,4.21s1.88,4.21,4.21,4.21,4.21-1.88,4.21-4.21-1.88-4.21-4.21-4.21Z"/>
  <path class="st3" d="M154.08,14.69s3.47-6.93,9.01-6.1c0,0-1.94,1.32-1.94,3.01,0,0,4.16-1.49,9.7-.8,5.55.69,7.76-1.66,7.76-1.66,0,0-1.53,17.33-24.54,5.54"/>
  <path class="st2" d="M230.02,50.43s-38.62-32.44-63.64,0c0,0-13.53,20.19,4.51,47.73,0,0,8.07-33.96,59.13-27.78,0,0-16.15-17.8-42.74-5.34,0,0,9.97-13.18,42.74-5.82,0,0-24.7-16.29-45.12-6.13,0,0,11.4-13.35,45.12-2.66"/>
  <path class="st2" d="M153.8,17.42s6.41,7.38,1.66,35.99c-4.75,28.6,11.87,44.75,11.87,44.75,0,0-23.98-41.78,8.31-58.76,0,0-3.32-17.46-21.85-21.97"/>
  <path class="st1" d="M151.56,17.58s-5.64-1.55-9.54,1.09c0,0,10.54,5.36,13.09,10.36,0,0-.82-6.18-3.55-11.45"/>
  <path class="st3" d="M155.1,31.6s1.84,16.31-4.56,16.31-2.03-13.21,4.56-16.31"/>
</svg>